<?xml version="1.0" encoding="UTF-8"?>
<svg id="Vrstva_2" data-name="Vrstva 2" xmlns="http://www.w3.org/2000/svg" viewBox="0 0 90 58">
  <defs>
    <style>
      .cls-1 {
        fill: #005b72;
      }
    </style>
  </defs>
  <g id="Vrstva_1-2" data-name="Vrstva 1">
    <path class="cls-1" d="M23,0c-1.15,0-2.16.65-2.66,1.61-.22.42-8.03,18.05-8.03,18.05-.01.02-.02.04-.03.06l-.03.06s0,.02,0,.03c0,0-11.87,25.71-12,26.01-.16.36-.25.76-.25,1.18,0,1.66,1.34,3,3,3,.77,0,18-5.47,18-5.47v10.47c0,1.66,1.34,3,3,3,.53,0,1.04-.14,1.47-.38.91-.51,62.71-33.8,63.19-34.12.81-.54,1.34-1.46,1.34-2.5,0-1.25-.77-2.32-1.86-2.77-.35-.15-62.98-17.64-64.15-18.06-.31-.11-.65-.17-1-.17ZM24.69,6.59l40.62,11.41H19.62l5.06-11.41ZM16.91,24h50.25L8.53,42.12l8.38-18.12ZM58.53,32.94l-31.53,17v-7.25l31.53-9.75Z"/>
  </g>
</svg>